<svg width="106" height="70" viewBox="0 0 106 70" fill="none" xmlns="http://www.w3.org/2000/svg">
<path d="M10.7189 49.9043L12.5713 52.6434C12.7257 52.7956 13.0344 52.9477 13.3431 52.7956L17.6653 50.9695C18.5915 50.6652 18.9002 51.426 18.2828 52.4912L15.1955 57.2085C14.8868 57.665 14.8868 57.9693 14.8868 58.2736L15.6586 62.0779C15.813 62.8387 14.8868 64.0561 14.115 64.0561L10.2559 64.2082C9.94713 64.2082 9.6384 64.5126 9.17531 64.8169L5.31621 68.9255C4.54439 69.8385 3.61821 69.6863 3.77257 68.6211L4.54439 64.0561C4.54439 63.7517 4.54439 63.4474 4.23567 63.2952L1.14839 62.0779C0.530931 61.7735 0.839655 60.5562 1.76584 59.9475L6.08803 56.9041C6.39676 56.5998 6.70548 56.2955 6.85985 55.8389L8.71222 50.9695C9.17531 49.9043 10.4102 49.2957 10.7189 49.9043Z" fill="#36CF98"/>
<path d="M32.6384 37.4265L34.4907 40.1656C34.6451 40.3178 34.9538 40.4699 35.2626 40.3177L39.5848 38.4917C40.5109 38.1874 40.8197 38.9482 40.2022 40.0134L37.1149 44.7306C36.8062 45.1872 36.8062 45.4915 36.8062 45.7958L37.578 49.6C37.7324 50.3609 36.8062 51.5782 36.0344 51.5782L32.1753 51.7304C31.8666 51.7304 31.5578 52.0347 31.0947 52.3391L27.2356 56.4476C26.4638 57.3606 25.5376 57.2085 25.692 56.1433L26.4638 51.5782C26.4638 51.2739 26.4638 50.9696 26.1551 50.8174L23.0678 49.6C22.4504 49.2957 22.7591 48.0784 23.6853 47.4697L28.0075 44.4263C28.3162 44.122 28.6249 43.8176 28.7793 43.3611L30.6316 38.4917C31.0947 37.5787 32.1753 36.97 32.6384 37.4265Z" fill="#36CF98"/>
<path d="M54.404 25.1009L56.2564 27.8399C56.4107 27.9921 56.7195 28.1443 57.0282 27.9921L61.3504 26.1661C62.2766 25.8617 62.5853 26.6226 61.9678 27.6878L58.8806 32.405C58.5718 32.8615 58.5718 33.1658 58.5718 33.4701L59.3436 37.2744C59.498 38.0352 58.5718 39.2526 57.8 39.2526L53.9409 39.4047C53.6322 39.4047 53.3235 39.7091 52.8604 40.0134L49.0013 44.1219C48.2295 45.035 47.3033 44.8828 47.4576 43.8176L48.2295 39.2526C48.2295 38.796 48.2294 38.6439 47.9207 38.4917L44.8334 37.2744C44.216 36.97 44.5247 35.7527 45.4509 35.144L49.7731 32.1006C50.0818 31.7963 50.3905 31.492 50.5449 31.0355L52.3973 26.1661C52.8604 25.1009 53.9409 24.4922 54.404 25.1009Z" fill="#36CF98"/>
<path d="M76.1691 12.623L78.0215 15.3621C78.1759 15.5142 78.4846 15.6664 78.7933 15.5142L83.1155 13.6882C84.0417 13.3839 84.3504 14.1447 83.733 15.2099L80.6457 19.9271C80.337 20.3836 80.337 20.688 80.337 20.9923L81.1088 24.7965C81.2631 25.5574 80.337 26.7747 79.5651 26.7747L75.706 26.9269C75.3973 26.9269 75.0886 27.2312 74.6255 27.5356L70.7664 31.6441C69.9946 32.5571 69.0684 32.405 69.2228 31.3398L69.9946 26.7747C69.9946 26.4704 69.9946 26.166 69.6859 26.0139L66.5986 24.7965C65.9811 24.4922 66.2898 23.2748 67.216 22.6662L71.5382 19.6228C71.847 19.3184 72.1557 19.0141 72.31 18.5576L74.1624 13.6882C74.6255 12.7752 75.7061 12.1665 76.1691 12.623Z" fill="#36CF98"/>
<path d="M97.9348 0.297406L99.7871 3.03642C99.9415 3.18859 100.25 3.34077 100.559 3.1886L104.881 1.36258C105.807 1.05824 106.116 1.81909 105.499 2.88427L102.411 7.60148C102.103 8.05799 102.103 8.36235 102.103 8.66668L102.874 12.4709C103.029 13.2317 102.103 14.4491 101.331 14.4491L97.4717 14.6013C97.163 14.6013 96.8542 14.9056 96.3911 15.2099L92.532 19.3185C91.7602 20.2315 90.834 20.0793 90.9884 19.0141L91.7602 14.4491C91.7602 14.1447 91.7602 13.8404 91.4515 13.6882L88.3642 12.4709C87.7467 12.1666 88.0555 10.9492 88.9817 10.3405L93.3038 7.29715C93.6126 6.99281 93.9213 6.68848 94.0757 6.23198L95.928 1.36258C96.3911 0.297401 97.4717 -0.311269 97.9348 0.297406Z" fill="#36CF98"/>
</svg>
