<svg width="126" height="35" viewBox="0 0 126 35" fill="none" xmlns="http://www.w3.org/2000/svg">
<path d="M9.476 27.216C7.388 27.216 5.696 26.832 4.4 26.064C3.128 25.296 2.192 24.252 1.592 22.932C1.016 21.588 0.728 20.088 0.728 18.432C0.728 17.808 0.764 17.184 0.836 16.56C0.908 15.912 1.016 15.252 1.16 14.58L3.968 1.44H10.988L8.18 14.58C8.084 15.036 8.012 15.48 7.964 15.912C7.916 16.32 7.892 16.728 7.892 17.136C7.892 17.88 7.988 18.54 8.18 19.116C8.372 19.692 8.684 20.148 9.116 20.484C9.548 20.82 10.112 20.988 10.808 20.988C11.528 20.988 12.176 20.82 12.752 20.484C13.328 20.124 13.844 19.644 14.3 19.044C14.756 18.42 15.14 17.724 15.452 16.956C15.764 16.188 16.004 15.396 16.172 14.58L18.98 1.44H26L23.192 14.58C22.808 16.356 22.232 18.012 21.464 19.548C20.696 21.084 19.736 22.428 18.584 23.58C17.432 24.732 16.088 25.632 14.552 26.28C13.04 26.904 11.348 27.216 9.476 27.216ZM27.7677 8.064H33.7077L33.0957 10.908C33.9357 9.876 34.8837 9.084 35.9397 8.532C36.9957 7.98 38.1957 7.704 39.5397 7.704C40.8837 7.704 42.0357 8.04 42.9957 8.712C43.9797 9.36 44.7357 10.26 45.2637 11.412C45.7917 12.54 46.0557 13.848 46.0557 15.336C46.0557 16.944 45.7797 18.48 45.2277 19.944C44.6757 21.384 43.9317 22.668 42.9957 23.796C42.0597 24.9 40.9797 25.776 39.7557 26.424C38.5557 27.048 37.3077 27.36 36.0117 27.36C34.7397 27.36 33.6837 27.096 32.8437 26.568C32.0037 26.016 31.4517 25.224 31.1877 24.192L28.9557 34.668H22.1157L27.7677 8.064ZM34.8597 21.6C35.3637 21.6 35.8557 21.468 36.3357 21.204C36.8157 20.916 37.2477 20.532 37.6317 20.052C38.0157 19.572 38.3157 19.02 38.5317 18.396C38.7717 17.772 38.8917 17.124 38.8917 16.452C38.8917 15.852 38.7837 15.336 38.5677 14.904C38.3757 14.448 38.0877 14.1 37.7037 13.86C37.3197 13.596 36.8517 13.464 36.2997 13.464C36.0117 13.464 35.7357 13.512 35.4717 13.608C35.2077 13.68 34.9437 13.8 34.6797 13.968C34.4157 14.112 34.1517 14.304 33.8877 14.544C33.6237 14.784 33.3477 15.072 33.0597 15.408L32.3397 18.684C32.4357 19.236 32.5917 19.74 32.8077 20.196C33.0477 20.628 33.3477 20.976 33.7077 21.24C34.0677 21.48 34.4517 21.6 34.8597 21.6Z" fill="#1EEBCD"/>
<path d="M65.0268 6.228C64.3068 5.412 63.3468 4.752 62.1468 4.248C60.9468 3.744 59.5788 3.492 58.0428 3.492C55.7868 3.492 54.1428 3.924 53.1108 4.788C52.0788 5.628 51.5628 6.78 51.5628 8.244C51.5628 9.012 51.6948 9.648 51.9588 10.152C52.2468 10.632 52.6788 11.052 53.2548 11.412C53.8308 11.772 54.5628 12.084 55.4508 12.348C56.3628 12.612 57.4308 12.876 58.6548 13.14C60.0228 13.428 61.2468 13.752 62.3268 14.112C63.4308 14.472 64.3668 14.928 65.1348 15.48C65.9028 16.008 66.4908 16.656 66.8988 17.424C67.3068 18.192 67.5108 19.152 67.5108 20.304C67.5108 21.48 67.2828 22.5 66.8268 23.364C66.3708 24.228 65.7348 24.948 64.9188 25.524C64.1028 26.1 63.1308 26.532 62.0028 26.82C60.8748 27.084 59.6388 27.216 58.2948 27.216C54.3348 27.216 50.9148 25.98 48.0348 23.508L49.2948 21.456C49.7508 21.936 50.2908 22.392 50.9148 22.824C51.5628 23.256 52.2708 23.64 53.0388 23.976C53.8308 24.288 54.6708 24.54 55.5588 24.732C56.4468 24.9 57.3828 24.984 58.3668 24.984C60.4068 24.984 61.9908 24.624 63.1188 23.904C64.2708 23.16 64.8468 22.044 64.8468 20.556C64.8468 19.764 64.6788 19.104 64.3428 18.576C64.0308 18.024 63.5508 17.556 62.9028 17.172C62.2548 16.764 61.4508 16.416 60.4908 16.128C59.5308 15.84 58.4148 15.552 57.1428 15.264C55.7988 14.952 54.6228 14.628 53.6148 14.292C52.6068 13.956 51.7548 13.536 51.0588 13.032C50.3628 12.528 49.8348 11.928 49.4748 11.232C49.1388 10.512 48.9708 9.636 48.9708 8.604C48.9708 7.428 49.1868 6.384 49.6188 5.472C50.0748 4.536 50.7108 3.768 51.5268 3.168C52.3428 2.544 53.3028 2.076 54.4068 1.764C55.5108 1.428 56.7348 1.26 58.0788 1.26C59.7828 1.26 61.2948 1.524 62.6148 2.052C63.9588 2.556 65.1708 3.276 66.2508 4.212L65.0268 6.228ZM79.55 27.36C78.182 27.36 76.922 27.108 75.77 26.604C74.642 26.076 73.658 25.368 72.818 24.48C71.978 23.568 71.318 22.524 70.838 21.348C70.382 20.172 70.154 18.912 70.154 17.568C70.154 16.248 70.382 15.012 70.838 13.86C71.318 12.684 71.966 11.664 72.782 10.8C73.622 9.912 74.618 9.216 75.77 8.712C76.922 8.184 78.17 7.92 79.514 7.92C80.882 7.92 82.13 8.184 83.258 8.712C84.41 9.216 85.394 9.912 86.21 10.8C87.026 11.688 87.662 12.708 88.118 13.86C88.574 15.012 88.802 16.236 88.802 17.532C88.802 17.724 88.802 17.916 88.802 18.108C88.802 18.3 88.79 18.432 88.766 18.504H72.71C72.782 19.512 73.01 20.448 73.394 21.312C73.802 22.152 74.318 22.884 74.942 23.508C75.566 24.132 76.274 24.624 77.066 24.984C77.882 25.32 78.746 25.488 79.658 25.488C80.258 25.488 80.858 25.404 81.458 25.236C82.058 25.068 82.61 24.84 83.114 24.552C83.618 24.264 84.074 23.916 84.482 23.508C84.89 23.076 85.202 22.608 85.418 22.104L87.542 22.68C87.254 23.376 86.846 24.012 86.318 24.588C85.79 25.14 85.178 25.632 84.482 26.064C83.786 26.472 83.018 26.784 82.178 27C81.338 27.24 80.462 27.36 79.55 27.36ZM86.462 16.632C86.39 15.624 86.15 14.712 85.742 13.896C85.358 13.056 84.854 12.336 84.23 11.736C83.63 11.136 82.922 10.668 82.106 10.332C81.314 9.996 80.462 9.828 79.55 9.828C78.638 9.828 77.774 9.996 76.958 10.332C76.142 10.668 75.422 11.136 74.798 11.736C74.198 12.336 73.706 13.056 73.322 13.896C72.962 14.736 72.746 15.648 72.674 16.632H86.462ZM92.6869 0.719999H95.1349V22.752C95.1349 23.448 95.3269 24 95.7109 24.408C96.0949 24.792 96.6349 24.984 97.3309 24.984C97.5949 24.984 97.9069 24.948 98.2669 24.876C98.6269 24.804 98.9629 24.708 99.2749 24.588L99.7069 26.568C99.2509 26.76 98.6869 26.916 98.0149 27.036C97.3669 27.156 96.8029 27.216 96.3229 27.216C95.1949 27.216 94.3069 26.904 93.6589 26.28C93.0109 25.632 92.6869 24.732 92.6869 23.58V0.719999ZM102.496 0.719999H104.944V22.752C104.944 23.448 105.136 24 105.52 24.408C105.904 24.792 106.444 24.984 107.14 24.984C107.404 24.984 107.716 24.948 108.076 24.876C108.436 24.804 108.772 24.708 109.084 24.588L109.516 26.568C109.06 26.76 108.496 26.916 107.824 27.036C107.176 27.156 106.612 27.216 106.132 27.216C105.004 27.216 104.116 26.904 103.468 26.28C102.82 25.632 102.496 24.732 102.496 23.58V0.719999ZM118.424 27.36C116.96 27.36 115.532 27.12 114.14 26.64C112.748 26.16 111.548 25.464 110.54 24.552L111.656 22.896C112.712 23.76 113.78 24.408 114.86 24.84C115.964 25.272 117.14 25.488 118.388 25.488C119.9 25.488 121.1 25.188 121.988 24.588C122.9 23.964 123.356 23.088 123.356 21.96C123.356 21.432 123.236 21 122.996 20.664C122.756 20.304 122.396 19.992 121.916 19.728C121.46 19.464 120.872 19.236 120.152 19.044C119.456 18.828 118.64 18.612 117.704 18.396C116.624 18.132 115.688 17.868 114.896 17.604C114.104 17.34 113.444 17.04 112.916 16.704C112.412 16.368 112.028 15.96 111.764 15.48C111.524 14.976 111.404 14.352 111.404 13.608C111.404 12.672 111.584 11.844 111.944 11.124C112.328 10.404 112.832 9.816 113.456 9.36C114.104 8.88 114.848 8.52 115.688 8.28C116.552 8.04 117.464 7.92 118.424 7.92C119.864 7.92 121.172 8.16 122.348 8.64C123.524 9.096 124.472 9.708 125.192 10.476L124.004 11.916C123.308 11.196 122.456 10.656 121.448 10.296C120.464 9.936 119.432 9.756 118.352 9.756C117.704 9.756 117.104 9.828 116.552 9.972C116 10.092 115.508 10.296 115.076 10.584C114.668 10.872 114.344 11.244 114.104 11.7C113.864 12.132 113.744 12.648 113.744 13.248C113.744 13.752 113.828 14.16 113.996 14.472C114.164 14.784 114.44 15.06 114.824 15.3C115.208 15.516 115.688 15.72 116.264 15.912C116.864 16.08 117.584 16.26 118.424 16.452C119.624 16.74 120.68 17.028 121.592 17.316C122.504 17.604 123.26 17.94 123.86 18.324C124.484 18.708 124.952 19.176 125.264 19.728C125.576 20.28 125.732 20.952 125.732 21.744C125.732 23.472 125.072 24.84 123.752 25.848C122.432 26.856 120.656 27.36 118.424 27.36Z" fill="white"/>
</svg>
